<mxfile host="app.diagrams.net" modified="2024-07-11T12:28:41.731Z" agent="Mozilla/5.0 (Macintosh; Intel Mac OS X 10_15_7) AppleWebKit/537.36 (KHTML, like Gecko) Chrome/126.0.0.0 Safari/537.36" etag="Pf8oO6xYed9py2Ke7ETS" version="21.3.7" type="github">
  <diagram id="-NZCvJOlYVIJsy2IGn_z" name="Page-1">
    <mxGraphModel dx="2524" dy="672" grid="1" gridSize="10" guides="1" tooltips="1" connect="1" arrows="1" fold="1" page="1" pageScale="1" pageWidth="850" pageHeight="1100" math="0" shadow="0">
      <root>
        <mxCell id="0" />
        <mxCell id="1" parent="0" />
        <mxCell id="33" value="" style="rounded=1;whiteSpace=wrap;html=1;" parent="1" vertex="1">
          <mxGeometry x="-280" y="240" width="520" height="490" as="geometry" />
        </mxCell>
        <mxCell id="34" value="" style="rounded=1;whiteSpace=wrap;html=1;" parent="1" vertex="1">
          <mxGeometry x="280" y="330" width="390" height="330" as="geometry" />
        </mxCell>
        <mxCell id="35" value="GET/healthz" style="endArrow=classic;html=1;rounded=0;fillColor=#d5e8d4;strokeColor=#82b366;strokeWidth=3;exitX=0.996;exitY=0.17;exitDx=0;exitDy=0;exitPerimeter=0;entryX=0;entryY=0.172;entryDx=0;entryDy=0;entryPerimeter=0;" parent="1" source="45" target="41" edge="1">
          <mxGeometry width="50" height="50" relative="1" as="geometry">
            <mxPoint x="-260" y="400" as="sourcePoint" />
            <mxPoint x="-140" y="400" as="targetPoint" />
          </mxGeometry>
        </mxCell>
        <mxCell id="36" style="edgeStyle=orthogonalEdgeStyle;rounded=0;orthogonalLoop=1;jettySize=auto;html=1;fontFamily=Helvetica;fontSize=12;fontColor=default;exitX=1.001;exitY=0.309;exitDx=0;exitDy=0;exitPerimeter=0;fillColor=#ffe6cc;strokeColor=#d79b00;strokeWidth=3;startArrow=classic;startFill=1;" parent="1" source="41" target="52" edge="1">
          <mxGeometry relative="1" as="geometry" />
        </mxCell>
        <mxCell id="37" style="edgeStyle=orthogonalEdgeStyle;rounded=0;orthogonalLoop=1;jettySize=auto;html=1;entryX=0;entryY=0.5;entryDx=0;entryDy=0;fontFamily=Helvetica;fontSize=12;fontColor=default;fillColor=#f8cecc;strokeColor=#b85450;strokeWidth=3;startArrow=classic;startFill=1;" parent="1" source="41" target="57" edge="1">
          <mxGeometry relative="1" as="geometry" />
        </mxCell>
        <mxCell id="38" style="edgeStyle=orthogonalEdgeStyle;rounded=0;orthogonalLoop=1;jettySize=auto;html=1;fontFamily=Helvetica;fontSize=12;fontColor=default;strokeWidth=3;fillColor=#e1d5e7;strokeColor=#9673a6;startArrow=classic;startFill=1;" parent="1" source="41" target="54" edge="1">
          <mxGeometry relative="1" as="geometry">
            <Array as="points">
              <mxPoint x="50" y="540" />
              <mxPoint x="50" y="570" />
            </Array>
          </mxGeometry>
        </mxCell>
        <mxCell id="39" style="edgeStyle=orthogonalEdgeStyle;rounded=0;orthogonalLoop=1;jettySize=auto;html=1;entryX=0;entryY=0.5;entryDx=0;entryDy=0;fontFamily=Helvetica;fontSize=12;fontColor=default;fillColor=#dae8fc;strokeColor=#6c8ebf;strokeWidth=3;exitX=1.003;exitY=0.859;exitDx=0;exitDy=0;exitPerimeter=0;startArrow=classic;startFill=1;" parent="1" source="41" target="55" edge="1">
          <mxGeometry relative="1" as="geometry" />
        </mxCell>
        <mxCell id="40" style="edgeStyle=orthogonalEdgeStyle;rounded=0;orthogonalLoop=1;jettySize=auto;html=1;fontFamily=Helvetica;fontSize=12;fontColor=default;fillColor=#d5e8d4;strokeColor=#82b366;strokeWidth=3;startArrow=classic;startFill=1;" parent="1" source="41" target="56" edge="1">
          <mxGeometry relative="1" as="geometry">
            <Array as="points">
              <mxPoint x="55" y="400" />
              <mxPoint x="55" y="350" />
            </Array>
          </mxGeometry>
        </mxCell>
        <mxCell id="41" value="API Controllers" style="rounded=1;whiteSpace=wrap;html=1;" parent="1" vertex="1">
          <mxGeometry x="-120" y="350" width="120" height="290" as="geometry" />
        </mxCell>
        <mxCell id="42" value="&lt;div&gt;GET/accounts/:msaId&lt;/div&gt;&lt;div&gt;&lt;div&gt;POST/accounts/siwf&lt;/div&gt;&lt;/div&gt;" style="endArrow=classic;html=1;rounded=0;entryX=0.008;entryY=0.307;entryDx=0;entryDy=0;fillColor=#ffe6cc;strokeColor=#d79b00;strokeWidth=3;entryPerimeter=0;exitX=0.998;exitY=0.31;exitDx=0;exitDy=0;exitPerimeter=0;" parent="1" source="45" target="41" edge="1">
          <mxGeometry width="50" height="50" relative="1" as="geometry">
            <mxPoint x="-260" y="439" as="sourcePoint" />
            <mxPoint x="-140" y="470" as="targetPoint" />
          </mxGeometry>
        </mxCell>
        <mxCell id="43" value="&lt;div&gt;GET/delegation/:msaId&lt;/div&gt;" style="endArrow=classic;html=1;rounded=0;entryX=-0.008;entryY=0.445;entryDx=0;entryDy=0;fillColor=#f8cecc;strokeColor=#b85450;strokeWidth=3;entryPerimeter=0;exitX=1.005;exitY=0.446;exitDx=0;exitDy=0;exitPerimeter=0;" parent="1" source="45" target="41" edge="1">
          <mxGeometry width="50" height="50" relative="1" as="geometry">
            <mxPoint x="-270" y="479" as="sourcePoint" />
            <mxPoint x="-130" y="490" as="targetPoint" />
          </mxGeometry>
        </mxCell>
        <mxCell id="44" value="&lt;div&gt;POST/handles&lt;/div&gt;&lt;div&gt;POST/handles/change&lt;/div&gt;&lt;div&gt;GET/handles/:msaId&lt;/div&gt;" style="endArrow=classic;html=1;rounded=0;fillColor=#e1d5e7;strokeColor=#9673a6;strokeWidth=3;exitX=1.018;exitY=0.724;exitDx=0;exitDy=0;exitPerimeter=0;entryX=0.014;entryY=0.659;entryDx=0;entryDy=0;entryPerimeter=0;" parent="1" target="41" edge="1">
          <mxGeometry width="50" height="50" relative="1" as="geometry">
            <mxPoint x="-407.8399999999999" y="539.96" as="sourcePoint" />
            <mxPoint x="-120" y="540" as="targetPoint" />
          </mxGeometry>
        </mxCell>
        <mxCell id="45" value="&lt;u&gt;&lt;b&gt;Provider Backend&lt;/b&gt;&lt;/u&gt;" style="rounded=1;whiteSpace=wrap;html=1;fillColor=#fff2cc;strokeColor=#d6b656;fontColor=#000000;" parent="1" vertex="1">
          <mxGeometry x="-490" y="350" width="120" height="290" as="geometry" />
        </mxCell>
        <mxCell id="46" value="" style="endArrow=classic;html=1;rounded=0;fontSize=12;startSize=8;endSize=8;edgeStyle=orthogonalEdgeStyle;strokeWidth=3;fillColor=#f5f5f5;strokeColor=#666666;dashed=1;entryX=0.467;entryY=1.069;entryDx=0;entryDy=0;entryPerimeter=0;exitX=0.5;exitY=1;exitDx=0;exitDy=0;" parent="1" source="60" target="49" edge="1">
          <mxGeometry width="50" height="50" relative="1" as="geometry">
            <mxPoint x="560" y="560" as="sourcePoint" />
            <mxPoint x="-520" y="720" as="targetPoint" />
            <Array as="points">
              <mxPoint x="560" y="750" />
              <mxPoint x="-434" y="750" />
            </Array>
          </mxGeometry>
        </mxCell>
        <mxCell id="47" value="Callback on MSA created and&lt;div&gt;on Delegation created&lt;/div&gt;" style="edgeLabel;html=1;align=center;verticalAlign=middle;resizable=0;points=[];fontSize=12;" parent="46" vertex="1" connectable="0">
          <mxGeometry x="0.0564" relative="1" as="geometry">
            <mxPoint x="275" as="offset" />
          </mxGeometry>
        </mxCell>
        <mxCell id="48" value="&lt;div&gt;POST/keys/add&lt;/div&gt;&lt;div&gt;GET/keys/:msaId&lt;/div&gt;" style="endArrow=classic;html=1;rounded=0;fillColor=#dae8fc;strokeColor=#6c8ebf;strokeWidth=3;exitX=1.008;exitY=0.858;exitDx=0;exitDy=0;exitPerimeter=0;entryX=-0.007;entryY=0.861;entryDx=0;entryDy=0;entryPerimeter=0;" parent="1" source="45" target="41" edge="1">
          <mxGeometry width="50" height="50" relative="1" as="geometry">
            <mxPoint x="-409.99999999999994" y="600" as="sourcePoint" />
            <mxPoint x="-130" y="600" as="targetPoint" />
          </mxGeometry>
        </mxCell>
        <mxCell id="49" value="Global&lt;div&gt;Webhook&lt;/div&gt;" style="rounded=1;whiteSpace=wrap;html=1;fillColor=#fff2cc;strokeColor=#d6b656;fontColor=#000000;" parent="1" vertex="1">
          <mxGeometry x="-490" y="640" width="120" height="40" as="geometry" />
        </mxCell>
        <mxCell id="50" style="edgeStyle=orthogonalEdgeStyle;rounded=0;orthogonalLoop=1;jettySize=auto;html=1;fontFamily=Helvetica;fontSize=12;fontColor=default;fillColor=#ffe6cc;strokeColor=#d79b00;strokeWidth=3;entryX=0;entryY=0.25;entryDx=0;entryDy=0;" parent="1" source="52" target="64" edge="1">
          <mxGeometry relative="1" as="geometry">
            <mxPoint x="330" y="500" as="targetPoint" />
            <Array as="points">
              <mxPoint x="260" y="430" />
              <mxPoint x="260" y="490" />
            </Array>
          </mxGeometry>
        </mxCell>
        <mxCell id="51" style="edgeStyle=orthogonalEdgeStyle;rounded=0;orthogonalLoop=1;jettySize=auto;html=1;fontFamily=Helvetica;fontSize=12;fontColor=default;fillColor=#dae8fc;strokeColor=#6c8ebf;strokeWidth=3;entryX=0;entryY=0.75;entryDx=0;entryDy=0;" parent="1" target="64" edge="1">
          <mxGeometry relative="1" as="geometry">
            <mxPoint x="209.9939393939394" y="650.0181818181819" as="sourcePoint" />
            <mxPoint x="328.57142857142844" y="520.1785714285714" as="targetPoint" />
            <Array as="points">
              <mxPoint x="270" y="650" />
              <mxPoint x="270" y="520" />
            </Array>
          </mxGeometry>
        </mxCell>
        <mxCell id="52" value="Accounts Service" style="shape=parallelogram;perimeter=parallelogramPerimeter;whiteSpace=wrap;html=1;fixedSize=1;rounded=1;strokeColor=#d79b00;align=center;verticalAlign=middle;fontFamily=Helvetica;fontSize=12;fillColor=#ffe6cc;fontColor=#000000;" parent="1" vertex="1">
          <mxGeometry x="100" y="399.75" width="120" height="60" as="geometry" />
        </mxCell>
        <mxCell id="53" style="edgeStyle=orthogonalEdgeStyle;rounded=0;orthogonalLoop=1;jettySize=auto;html=1;fontFamily=Helvetica;fontSize=12;fontColor=default;fillColor=#e1d5e7;strokeColor=#9673a6;strokeWidth=3;entryX=0;entryY=0.5;entryDx=0;entryDy=0;" parent="1" source="54" target="64" edge="1">
          <mxGeometry relative="1" as="geometry">
            <mxPoint x="330" y="500" as="targetPoint" />
            <Array as="points">
              <mxPoint x="260" y="570" />
              <mxPoint x="260" y="505" />
            </Array>
          </mxGeometry>
        </mxCell>
        <mxCell id="54" value="Handles Service" style="shape=parallelogram;perimeter=parallelogramPerimeter;whiteSpace=wrap;html=1;fixedSize=1;rounded=1;strokeColor=#9673a6;align=center;verticalAlign=middle;fontFamily=Helvetica;fontSize=12;fillColor=#e1d5e7;fontColor=#000000;" parent="1" vertex="1">
          <mxGeometry x="100" y="540.25" width="120" height="60" as="geometry" />
        </mxCell>
        <mxCell id="55" value="Keys Service" style="shape=parallelogram;perimeter=parallelogramPerimeter;whiteSpace=wrap;html=1;fixedSize=1;rounded=1;strokeColor=#6c8ebf;align=center;verticalAlign=middle;fontFamily=Helvetica;fontSize=12;fillColor=#dae8fc;fontColor=#000000;" parent="1" vertex="1">
          <mxGeometry x="90" y="620" width="140" height="60" as="geometry" />
        </mxCell>
        <mxCell id="56" value="Api Service" style="shape=parallelogram;perimeter=parallelogramPerimeter;whiteSpace=wrap;html=1;fixedSize=1;rounded=1;strokeColor=#82b366;align=center;verticalAlign=middle;fontFamily=Helvetica;fontSize=12;fillColor=#d5e8d4;fontColor=#000000;" parent="1" vertex="1">
          <mxGeometry x="110" y="320" width="120" height="60" as="geometry" />
        </mxCell>
        <mxCell id="57" value="Delegation Service" style="shape=parallelogram;perimeter=parallelogramPerimeter;whiteSpace=wrap;html=1;fixedSize=1;rounded=1;strokeColor=#b85450;align=center;verticalAlign=middle;fontFamily=Helvetica;fontSize=12;fillColor=#f8cecc;fontColor=#000000;" parent="1" vertex="1">
          <mxGeometry x="90" y="470" width="130" height="60" as="geometry" />
        </mxCell>
        <mxCell id="58" value="&lt;h1 style=&quot;margin-top: 0px;&quot;&gt;Worker&lt;/h1&gt;&lt;p&gt;BullMQ is used to manage transaction related (on chain) jobs.&lt;/p&gt;" style="text;html=1;whiteSpace=wrap;overflow=hidden;rounded=0;fontFamily=Helvetica;fontSize=12;fontColor=default;" parent="1" vertex="1">
          <mxGeometry x="310" y="339.75" width="170" height="120" as="geometry" />
        </mxCell>
        <mxCell id="59" value="&lt;h1 style=&quot;margin-top: 0px;&quot;&gt;&lt;span style=&quot;background-color: initial;&quot;&gt;API&lt;/span&gt;&lt;/h1&gt;&lt;h1 style=&quot;margin-top: 0px; line-height: 20%;&quot;&gt;&lt;span style=&quot;background-color: initial; font-size: 12px; font-weight: normal;&quot;&gt;**RPC jobs: can be executed directly by the service.&lt;/span&gt;&lt;br&gt;&lt;/h1&gt;&lt;p style=&quot;line-height: 20%;&quot;&gt;**Extrinsic jobs: must use the queue.&lt;/p&gt;" style="text;html=1;whiteSpace=wrap;overflow=hidden;rounded=0;fontFamily=Helvetica;fontSize=12;fontColor=default;" parent="1" vertex="1">
          <mxGeometry x="-235" y="250" width="325" height="100" as="geometry" />
        </mxCell>
        <mxCell id="60" value="Webhook Publisher" style="rounded=1;whiteSpace=wrap;html=1;strokeColor=#666666;align=center;verticalAlign=middle;fontFamily=Helvetica;fontSize=12;fillColor=#f5f5f5;fontColor=#333333;" parent="1" vertex="1">
          <mxGeometry x="500" y="570" width="120" height="60" as="geometry" />
        </mxCell>
        <mxCell id="61" style="edgeStyle=orthogonalEdgeStyle;rounded=0;orthogonalLoop=1;jettySize=auto;html=1;entryX=0.5;entryY=0;entryDx=0;entryDy=0;fontFamily=Helvetica;fontSize=12;fontColor=default;fillColor=#f5f5f5;strokeColor=#666666;strokeWidth=3;" parent="1" source="62" target="60" edge="1">
          <mxGeometry relative="1" as="geometry" />
        </mxCell>
        <mxCell id="62" value="Transaction Monitor" style="shape=hexagon;perimeter=hexagonPerimeter2;whiteSpace=wrap;html=1;fixedSize=1;rounded=1;strokeColor=#666666;align=center;verticalAlign=middle;fontFamily=Helvetica;fontSize=12;fillColor=#f5f5f5;fontColor=#333333;" parent="1" vertex="1">
          <mxGeometry x="485" y="470.25" width="150" height="70" as="geometry" />
        </mxCell>
        <mxCell id="63" style="edgeStyle=orthogonalEdgeStyle;rounded=0;orthogonalLoop=1;jettySize=auto;html=1;fontFamily=Helvetica;fontSize=12;fontColor=default;fillColor=#f5f5f5;strokeColor=#666666;strokeWidth=3;entryX=0;entryY=0.5;entryDx=0;entryDy=0;" parent="1" source="BO-Ko7eQKJ20GUg6y8bx-72" target="62" edge="1">
          <mxGeometry relative="1" as="geometry">
            <Array as="points">
              <mxPoint x="460" y="595" />
              <mxPoint x="460" y="505" />
            </Array>
          </mxGeometry>
        </mxCell>
        <mxCell id="64" value="Transaction&lt;div&gt;Publisher&lt;/div&gt;" style="shape=hexagon;perimeter=hexagonPerimeter2;whiteSpace=wrap;html=1;fixedSize=1;rounded=1;strokeColor=#666666;align=center;verticalAlign=middle;fontFamily=Helvetica;fontSize=12;fillColor=#f5f5f5;fontColor=#333333;" parent="1" vertex="1">
          <mxGeometry x="330" y="470" width="120" height="70.25" as="geometry" />
        </mxCell>
        <mxCell id="65" value="&lt;u&gt;&lt;b&gt;Frequency Chain&lt;/b&gt;&lt;/u&gt;" style="shape=cube;whiteSpace=wrap;html=1;boundedLbl=1;backgroundOutline=1;darkOpacity=0.05;darkOpacity2=0.1;rounded=1;strokeColor=#d6b656;align=center;verticalAlign=middle;fontFamily=Helvetica;fontSize=12;fillColor=#fff2cc;fontColor=#000000;" parent="1" vertex="1">
          <mxGeometry x="400" y="130" width="180" height="97" as="geometry" />
        </mxCell>
        <mxCell id="66" style="edgeStyle=orthogonalEdgeStyle;rounded=0;orthogonalLoop=1;jettySize=auto;html=1;entryX=0;entryY=0;entryDx=0;entryDy=38.5;entryPerimeter=0;fontFamily=Helvetica;fontSize=12;fontColor=default;fillColor=#d5e8d4;strokeColor=#82b366;strokeWidth=3;" parent="1" source="56" target="65" edge="1">
          <mxGeometry relative="1" as="geometry">
            <Array as="points">
              <mxPoint x="260" y="350" />
              <mxPoint x="260" y="169" />
            </Array>
          </mxGeometry>
        </mxCell>
        <mxCell id="67" value="RPC" style="edgeLabel;html=1;align=center;verticalAlign=middle;resizable=0;points=[];rounded=1;strokeColor=default;fontFamily=Helvetica;fontSize=12;fontColor=default;fillColor=default;" parent="66" vertex="1" connectable="0">
          <mxGeometry x="-0.0385" y="-2" relative="1" as="geometry">
            <mxPoint x="68" y="-46" as="offset" />
          </mxGeometry>
        </mxCell>
        <mxCell id="68" style="edgeStyle=orthogonalEdgeStyle;rounded=0;orthogonalLoop=1;jettySize=auto;html=1;fontFamily=Helvetica;fontSize=12;fontColor=default;fillColor=#f5f5f5;strokeColor=#666666;strokeWidth=3;dashed=1;" parent="1" source="64" target="65" edge="1">
          <mxGeometry relative="1" as="geometry">
            <Array as="points">
              <mxPoint x="420" y="440" />
              <mxPoint x="490" y="440" />
            </Array>
          </mxGeometry>
        </mxCell>
        <mxCell id="69" value="Transactions" style="edgeLabel;html=1;align=center;verticalAlign=middle;resizable=0;points=[];rounded=1;strokeColor=default;fontFamily=Helvetica;fontSize=12;fontColor=default;fillColor=default;" parent="68" vertex="1" connectable="0">
          <mxGeometry x="0.7537" y="-4" relative="1" as="geometry">
            <mxPoint x="-19" as="offset" />
          </mxGeometry>
        </mxCell>
        <mxCell id="70" style="edgeStyle=orthogonalEdgeStyle;rounded=0;orthogonalLoop=1;jettySize=auto;html=1;entryX=0.694;entryY=1.006;entryDx=0;entryDy=0;entryPerimeter=0;fontFamily=Helvetica;fontSize=12;fontColor=default;fillColor=#f5f5f5;strokeColor=#666666;strokeWidth=3;dashed=1;" parent="1" source="62" target="65" edge="1">
          <mxGeometry relative="1" as="geometry">
            <Array as="points">
              <mxPoint x="560" y="440" />
              <mxPoint x="525" y="440" />
            </Array>
          </mxGeometry>
        </mxCell>
        <mxCell id="71" value="Monitoring" style="edgeLabel;html=1;align=center;verticalAlign=middle;resizable=0;points=[];rounded=1;strokeColor=default;fontFamily=Helvetica;fontSize=12;fontColor=default;fillColor=default;" parent="70" vertex="1" connectable="0">
          <mxGeometry x="0.4507" relative="1" as="geometry">
            <mxPoint x="15" y="-4" as="offset" />
          </mxGeometry>
        </mxCell>
        <mxCell id="BO-Ko7eQKJ20GUg6y8bx-71" value="" style="image;sketch=0;aspect=fixed;html=1;points=[];align=center;fontSize=12;image=img/lib/mscae/Cache_including_Redis.svg;" vertex="1" parent="1">
          <mxGeometry x="-30" y="440" width="50" height="50" as="geometry" />
        </mxCell>
        <mxCell id="BO-Ko7eQKJ20GUg6y8bx-72" value="" style="image;sketch=0;aspect=fixed;html=1;points=[];align=center;fontSize=12;image=img/lib/mscae/Cache_including_Redis.svg;" vertex="1" parent="1">
          <mxGeometry x="400" y="570" width="50" height="50" as="geometry" />
        </mxCell>
        <mxCell id="BO-Ko7eQKJ20GUg6y8bx-74" style="edgeStyle=orthogonalEdgeStyle;rounded=0;orthogonalLoop=1;jettySize=auto;html=1;fontFamily=Helvetica;fontSize=12;fontColor=default;fillColor=#f5f5f5;strokeColor=#666666;strokeWidth=3;" edge="1" parent="1" target="BO-Ko7eQKJ20GUg6y8bx-72">
          <mxGeometry relative="1" as="geometry">
            <mxPoint x="370" y="540" as="sourcePoint" />
            <mxPoint x="425" y="549" as="targetPoint" />
            <Array as="points">
              <mxPoint x="370" y="540" />
              <mxPoint x="370" y="595" />
            </Array>
          </mxGeometry>
        </mxCell>
        <mxCell id="BO-Ko7eQKJ20GUg6y8bx-75" value="&lt;p style=&quot;margin-top: 0px;&quot;&gt;&lt;span style=&quot;font-size: 12px; font-weight: 400;&quot;&gt;Pending transaction hashes added to Redis cache for monitoring&lt;/span&gt;&lt;/p&gt;" style="text;html=1;whiteSpace=wrap;overflow=hidden;rounded=0;fontFamily=Helvetica;fontSize=12;fontColor=default;align=left;" vertex="1" parent="1">
          <mxGeometry x="290" y="550" width="120" height="70" as="geometry" />
        </mxCell>
      </root>
    </mxGraphModel>
  </diagram>
</mxfile>
